<svg width="16" height="15" viewBox="0 0 16 15" fill="none" xmlns="http://www.w3.org/2000/svg">
<path d="M7.375 7.5V1.25C7.375 1.08424 7.44085 0.925269 7.55806 0.808058C7.67527 0.690848 7.83424 0.625 8 0.625C8.16576 0.625 8.32473 0.690848 8.44194 0.808058C8.55915 0.925269 8.625 1.08424 8.625 1.25V7.5C8.625 7.66576 8.55915 7.82473 8.44194 7.94194C8.32473 8.05915 8.16576 8.125 8 8.125C7.83424 8.125 7.67527 8.05915 7.55806 7.94194C7.44085 7.82473 7.375 7.66576 7.375 7.5ZM12.0914 1.35156C11.9526 1.26383 11.7848 1.23425 11.6244 1.26922C11.4639 1.30419 11.3237 1.4009 11.234 1.53844C11.1443 1.67599 11.1123 1.84331 11.145 2.00424C11.1777 2.16516 11.2724 2.30677 11.4086 2.39844C13.2141 3.57578 14.25 5.43516 14.25 7.5C14.25 9.1576 13.5915 10.7473 12.4194 11.9194C11.2473 13.0915 9.6576 13.75 8 13.75C6.3424 13.75 4.75269 13.0915 3.58058 11.9194C2.40848 10.7473 1.75 9.1576 1.75 7.5C1.75 5.43516 2.78594 3.57578 4.59141 2.39844C4.72765 2.30677 4.82234 2.16516 4.85502 2.00424C4.88769 1.84331 4.85571 1.67599 4.766 1.53844C4.67629 1.4009 4.53606 1.30419 4.37561 1.26922C4.21517 1.23425 4.0474 1.26383 3.90859 1.35156C1.74219 2.76406 0.5 5.00469 0.5 7.5C0.5 9.48912 1.29018 11.3968 2.6967 12.8033C4.10322 14.2098 6.01088 15 8 15C9.98912 15 11.8968 14.2098 13.3033 12.8033C14.7098 11.3968 15.5 9.48912 15.5 7.5C15.5 5.00469 14.2578 2.76406 12.0914 1.35156Z" fill="#FF6666"/>
</svg>
