<svg width="28" height="28" viewBox="0 0 28 28" fill="none" xmlns="http://www.w3.org/2000/svg">
<path d="M10.0368 5.71352C9.97235 5.65344 9.92064 5.58099 9.88477 5.50049C9.8489 5.41999 9.82962 5.33309 9.82806 5.24497C9.82651 5.15686 9.84272 5.06933 9.87572 4.98762C9.90873 4.9059 9.95785 4.83167 10.0202 4.76936C10.0825 4.70704 10.1567 4.65791 10.2384 4.62491C10.3201 4.5919 10.4077 4.57569 10.4958 4.57725C10.5839 4.5788 10.6708 4.59809 10.7513 4.63396C10.8318 4.66983 10.9043 4.72154 10.9643 4.78602L19.7143 13.536C19.8372 13.6591 19.9063 13.8259 19.9063 13.9998C19.9063 14.1737 19.8372 14.3405 19.7143 14.4635L10.9643 23.2135C10.8399 23.3294 10.6754 23.3925 10.5054 23.3895C10.3354 23.3865 10.1731 23.3177 10.0529 23.1974C9.93267 23.0772 9.8638 22.915 9.8608 22.745C9.8578 22.575 9.92091 22.4104 10.0368 22.286L18.322 13.9998L10.0368 5.71352Z" fill="#5C5C5C"/>
</svg>
