<svg width="335" height="41" viewBox="0 0 335 41" fill="none" xmlns="http://www.w3.org/2000/svg">
<g opacity="0.4">
<path d="M69.3359 12.1719C70.6641 15.0885 71.3281 18.6921 71.3281 22.9824V25.8828H69.5801V22.9531C69.5801 18.6497 68.9616 15.2448 67.7246 12.7383L69.3359 12.1719Z" fill="black" fill-opacity="0.6"/>
<path d="M117.066 14.9258C117.464 16.0456 118.355 16.6055 119.742 16.6055C120.576 16.6055 121.148 16.2995 121.461 15.6875C121.819 14.9974 121.998 13.8613 121.998 12.2793L123.756 12.2891C123.749 12.7773 123.733 13.2331 123.707 13.6562C123.583 15.3229 123.232 16.5208 122.652 17.25C122.014 18.0443 121.057 18.4382 119.781 18.4316C118.902 18.4316 118.222 18.2786 117.74 17.9727L117.75 18.041C117.965 19.6751 118.072 21.3223 118.072 22.9824V25.8828H116.324V22.9531C116.324 18.6497 115.706 15.2448 114.469 12.7383L116.07 12.1719L117.066 14.9258Z" fill="black" fill-opacity="0.6"/>
<path d="M160.902 24.6328C160.902 24.2682 161.029 23.9557 161.283 23.6953C161.544 23.4349 161.856 23.3047 162.221 23.3047C162.585 23.3047 162.895 23.4349 163.148 23.6953C163.409 23.9557 163.539 24.2682 163.539 24.6328C163.539 24.9909 163.409 25.3001 163.148 25.5605C162.895 25.821 162.585 25.9512 162.221 25.9512C161.902 25.9512 161.625 25.8503 161.391 25.6484C161.215 25.5052 161.085 25.3327 161 25.1309C160.935 24.9811 160.902 24.8151 160.902 24.6328ZM167.172 24.6328C167.172 24.2682 167.299 23.9557 167.553 23.6953C167.813 23.4349 168.126 23.3047 168.49 23.3047C168.855 23.3047 169.164 23.4349 169.418 23.6953C169.678 23.9557 169.809 24.2682 169.809 24.6328C169.809 24.9909 169.678 25.3001 169.418 25.5605C169.164 25.821 168.855 25.9512 168.49 25.9512C168.171 25.9512 167.895 25.8503 167.66 25.6484C167.484 25.5052 167.354 25.3327 167.27 25.1309C167.204 24.9811 167.172 24.8151 167.172 24.6328ZM173.441 24.6328C173.441 24.2682 173.568 23.9557 173.822 23.6953C174.083 23.4349 174.395 23.3047 174.76 23.3047C175.124 23.3047 175.434 23.4349 175.688 23.6953C175.948 23.9557 176.078 24.2682 176.078 24.6328C176.078 24.9909 175.948 25.3001 175.688 25.5605C175.434 25.821 175.124 25.9512 174.76 25.9512C174.441 25.9512 174.164 25.8503 173.93 25.6484C173.754 25.5052 173.624 25.3327 173.539 25.1309C173.474 24.9811 173.441 24.8151 173.441 24.6328Z" fill="black" fill-opacity="0.6"/>
<path d="M218.219 19.9941C215.628 19.9941 214.332 18.8516 214.332 16.5664C214.332 15.6224 214.56 14.7826 215.016 14.0469C215.81 12.7708 216.894 12.1328 218.268 12.1328C220.917 12.1328 222.33 13.7572 222.506 17.0059C222.649 19.6816 222.757 22.6406 222.828 25.8828H221.148L221.012 19.3301C220.126 19.7728 219.195 19.9941 218.219 19.9941ZM218.248 18.1387C219.133 18.1387 219.996 17.9303 220.836 17.5137L220.816 17.2891C220.634 15.0951 219.814 13.998 218.355 13.998C217.62 13.998 217.04 14.2878 216.617 14.8672C216.233 15.388 216.041 15.9251 216.041 16.4785C216.041 17.5853 216.777 18.1387 218.248 18.1387Z" fill="black" fill-opacity="0.6"/>
<path d="M261.072 12.1719C262.4 15.0885 263.064 18.6921 263.064 22.9824V25.8828H261.316V22.9531C261.316 18.6497 260.698 15.2448 259.461 12.7383L261.072 12.1719ZM269.725 19.2227C269.458 19.4896 269.324 19.8184 269.324 20.209C269.324 20.5931 269.458 20.9186 269.725 21.1855C269.861 21.3223 270.011 21.4264 270.174 21.498C270.343 21.5632 270.529 21.5957 270.73 21.5957C271.121 21.5957 271.45 21.459 271.717 21.1855C271.847 21.0553 271.945 20.9089 272.01 20.7461C272.081 20.5768 272.117 20.3978 272.117 20.209C272.117 20.0137 272.081 19.8346 272.01 19.6719C271.945 19.5091 271.847 19.3594 271.717 19.2227C271.45 18.9557 271.118 18.819 270.721 18.8125C270.525 18.819 270.343 18.8581 270.174 18.9297C270.011 18.9948 269.861 19.0924 269.725 19.2227ZM268.494 18.0215C268.644 17.8652 268.8 17.7318 268.963 17.6211C269.132 17.5039 269.308 17.4095 269.49 17.3379C269.855 17.1816 270.249 17.1035 270.672 17.1035C270.952 17.1035 271.219 17.1393 271.473 17.2109C271.727 17.276 271.967 17.377 272.195 17.5137C272.43 17.6439 272.648 17.8132 272.85 18.0215C273.149 18.321 273.374 18.653 273.523 19.0176C273.68 19.3822 273.758 19.776 273.758 20.1992C273.758 21.0456 273.455 21.7715 272.85 22.377C272.693 22.5267 272.531 22.6602 272.361 22.7773C272.199 22.888 272.026 22.9824 271.844 23.0605C271.668 23.1322 271.479 23.1875 271.277 23.2266C271.082 23.2591 270.88 23.2754 270.672 23.2754C270.249 23.2754 269.855 23.2005 269.49 23.0508C269.367 23.0052 269.246 22.9499 269.129 22.8848C269.018 22.8132 268.908 22.735 268.797 22.6504C268.693 22.5658 268.592 22.4746 268.494 22.377C268.188 22.071 267.96 21.7389 267.811 21.3809C267.661 21.0163 267.586 20.6224 267.586 20.1992C267.586 19.776 267.661 19.3822 267.811 19.0176C267.96 18.653 268.188 18.321 268.494 18.0215Z" fill="black" fill-opacity="0.6"/>
<rect width="41" height="41" rx="6" fill="#E6E6E6"/>
<rect x="49.5" y="0.5" width="40" height="40" rx="5.5" stroke="#E6E6E6"/>
<rect x="98.5" y="0.5" width="40" height="40" rx="5.5" stroke="#E6E6E6"/>
<rect x="147.5" y="0.5" width="40" height="40" rx="5.5" stroke="#E6E6E6"/>
<rect x="196.5" y="0.5" width="40" height="40" rx="5.5" stroke="#E6E6E6"/>
<rect x="245.5" y="0.5" width="40" height="40" rx="5.5" stroke="#E6E6E6"/>
<rect x="294.5" y="0.5" width="40" height="40" rx="5.5" stroke="#E6E6E6"/>
<path d="M24.9632 29.2865C25.0276 29.3466 25.0794 29.419 25.1152 29.4995C25.1511 29.58 25.1704 29.6669 25.1719 29.755C25.1735 29.8431 25.1573 29.9307 25.1243 30.0124C25.0913 30.0941 25.0421 30.1683 24.9798 30.2306C24.9175 30.293 24.8433 30.3421 24.7616 30.3751C24.6799 30.4081 24.5923 30.4243 24.5042 30.4228C24.4161 30.4212 24.3292 30.4019 24.2487 30.366C24.1682 30.3302 24.0958 30.2785 24.0357 30.214L15.2857 21.464C15.1628 21.3409 15.0937 21.1741 15.0938 21.0002C15.0937 20.8263 15.1628 20.6595 15.2857 20.5365L24.0357 11.7865C24.1601 11.6706 24.3246 11.6075 24.4946 11.6105C24.6646 11.6135 24.8269 11.6823 24.9471 11.8026C25.0673 11.9228 25.1362 12.085 25.1392 12.255C25.1422 12.425 25.0791 12.5896 24.9632 12.714L16.678 21.0002L24.9632 29.2865Z" fill="#646464"/>
<path d="M311.037 12.7135C310.972 12.6534 310.921 12.581 310.885 12.5005C310.849 12.42 310.83 12.3331 310.828 12.245C310.827 12.1569 310.843 12.0693 310.876 11.9876C310.909 11.9059 310.958 11.8317 311.02 11.7694C311.082 11.707 311.157 11.6579 311.238 11.6249C311.32 11.5919 311.408 11.5757 311.496 11.5772C311.584 11.5788 311.671 11.5981 311.751 11.634C311.832 11.6698 311.904 11.7215 311.964 11.786L320.714 20.536C320.837 20.6591 320.906 20.8259 320.906 20.9998C320.906 21.1737 320.837 21.3405 320.714 21.4635L311.964 30.2135C311.84 30.3294 311.675 30.3925 311.505 30.3895C311.335 30.3865 311.173 30.3177 311.053 30.1974C310.933 30.0772 310.864 29.915 310.861 29.745C310.858 29.575 310.921 29.4104 311.037 29.286L319.322 20.9998L311.037 12.7135Z" fill="#646464"/>
</g>
</svg>
