<svg width="28" height="28" viewBox="0 0 28 28" fill="none" xmlns="http://www.w3.org/2000/svg">
<path d="M17.9632 22.2865C18.0276 22.3466 18.0794 22.419 18.1152 22.4995C18.1511 22.58 18.1704 22.6669 18.1719 22.755C18.1735 22.8431 18.1573 22.9307 18.1243 23.0124C18.0913 23.0941 18.0421 23.1683 17.9798 23.2306C17.9175 23.293 17.8433 23.3421 17.7616 23.3751C17.6799 23.4081 17.5923 23.4243 17.5042 23.4228C17.4161 23.4212 17.3292 23.4019 17.2487 23.366C17.1682 23.3302 17.0958 23.2785 17.0357 23.214L8.28567 14.464C8.16278 14.3409 8.09375 14.1741 8.09375 14.0002C8.09375 13.8263 8.16278 13.6595 8.28567 13.5365L17.0357 4.78648C17.1601 4.67056 17.3246 4.60745 17.4946 4.61045C17.6646 4.61345 17.8269 4.68233 17.9471 4.80256C18.0673 4.9228 18.1362 5.08501 18.1392 5.25502C18.1422 5.42504 18.0791 5.58958 17.9632 5.71398L9.67802 14.0002L17.9632 22.2865Z" fill="#5C5C5C"/>
</svg>
